HIERARCHY
ROOT Hips
{
	OFFSET 0.000000 0.000000 0.000000
	CHANNELS 6 Xposition Yposition Zposition Zrotation Yrotation Xrotation 
	JOINT LowerBack
	{
		OFFSET 0.000000 0.000000 0.000000
		CHANNELS 3 Zrotation Yrotation Xrotation
		JOINT Spine
		{
			OFFSET 0.028270 2.035590 -0.193380
			CHANNELS 3 Zrotation Yrotation Xrotation
			JOINT Spine1
			{
				OFFSET 0.056720 2.048850 -0.042750
				CHANNELS 3 Zrotation Yrotation Xrotation
				JOINT Neck
				{
					OFFSET 0.000000 0.000000 0.000000
					CHANNELS 3 Zrotation Yrotation Xrotation
					JOINT Neck1
					{
						OFFSET -0.054170 1.746240 0.172020
						CHANNELS 3 Zrotation Yrotation Xrotation
						JOINT Head
						{
							OFFSET 0.104070 1.761360 -0.123970
							CHANNELS 3 Zrotation Yrotation Xrotation
							End Site
							{
								OFFSET 0.000000 0.000000 0.000000
							}
						}
					}
				}
				JOINT LeftShoulder
				{
					OFFSET 0.000000 0.000000 0.000000
					CHANNELS 3 Zrotation Yrotation Xrotation
					JOINT LeftArm
					{
						OFFSET 3.362410 1.200890 -0.311210
						CHANNELS 3 Zrotation Yrotation Xrotation
						JOINT LeftForeArm
						{
							OFFSET 4.983000 -0.000000 -0.000000
							CHANNELS 3 Zrotation Yrotation Xrotation
							JOINT LeftHand
							{
								OFFSET 3.483560 -0.000000 -0.000000
								CHANNELS 3 Zrotation Yrotation Xrotation
								JOINT LeftFingerBase
								{
									OFFSET 0.000000 0.000000 0.000000
									CHANNELS 3 Zrotation Yrotation Xrotation
									JOINT LeftHandIndex1
									{
										OFFSET 0.715260 -0.000000 -0.000000
										CHANNELS 3 Zrotation Yrotation Xrotation
										End Site
										{
											OFFSET 0.000000 0.000000 0.000000
										}
									}
								}
								JOINT LThumb
								{
									OFFSET 0.000000 0.000000 0.000000
									CHANNELS 3 Zrotation Yrotation Xrotation
									End Site
									{
										OFFSET 0.000000 0.000000 0.000000
									}
								}
							}
						}
					}
				}
				JOINT RightShoulder
				{
					OFFSET 0.000000 0.000000 0.000000
					CHANNELS 3 Zrotation Yrotation Xrotation
					JOINT RightArm
					{
						OFFSET -3.136600 1.374050 -0.404650
						CHANNELS 3 Zrotation Yrotation Xrotation
						JOINT RightForeArm
						{
							OFFSET -5.241900 -0.000000 -0.000000
							CHANNELS 3 Zrotation Yrotation Xrotation
							JOINT RightHand
							{
								OFFSET -3.444170 -0.000000 -0.000000
								CHANNELS 3 Zrotation Yrotation Xrotation
								JOINT RightFingerBase
								{
									OFFSET 0.000000 0.000000 0.000000
									CHANNELS 3 Zrotation Yrotation Xrotation
									JOINT RightHandIndex1
									{
										OFFSET -0.622530 -0.000000 -0.000000
										CHANNELS 3 Zrotation Yrotation Xrotation
										End Site
										{
											OFFSET 0.000000 0.000000 0.000000
										}
									}
								}
								JOINT RThumb
								{
									OFFSET 0.000000 0.000000 0.000000
									CHANNELS 3 Zrotation Yrotation Xrotation
									End Site
									{
										OFFSET 0.000000 0.000000 0.000000
									}
								}
							}
						}
					}
				}
			}
		}
	}
}
}
MOTION
Frames: 18
Frame Time: 0.008333
0.670672 16.609445 0.799577 33.049066 79.657389 54.962228 6.997642 -1.708174 8.229299 0.614931 -1.588569 -1.350920 -6.322666 -1.663122 -0.294731 8.600863 6.994558 5.659474 -4.439322 -0.385943 3.194556 0.000000 0.000000 0.000000 -8.082333 -7.283756 1.162430 -64.698650 -38.391833 23.300156 -1.537948 -66.817689 -0.039251 7.165119 -5.508181 -0.386195 -0.209409 0.507151 -0.000000 0.000000 0.000000 0.000000 0.000000 0.000000 0.000000 18.708359 3.913442 2.395656 50.445655 6.222611 -13.156547 3.303368 13.250787 0.006922 -1.447804 5.443512 -0.074178 0.092535 -0.091408 -0.000000 0.000000 0.000000 0.000000 0.000000 0.000000 0.000000 
0.820051 16.602125 0.885119 31.386072 79.593224 53.023892 7.103074 -1.723816 8.633212 0.620732 -1.573400 -1.282950 -6.369801 -1.654367 -0.354914 9.091087 7.623763 5.965842 -4.466145 -0.387136 3.266281 0.000000 0.000000 0.000000 -7.940933 -7.480280 1.119387 -64.931428 -37.713059 21.943512 -1.608238 -64.904241 -0.043950 7.999705 -5.748349 -0.446867 -0.211483 0.495424 -0.000000 0.000000 0.000000 0.000000 0.000000 0.000000 0.000000 19.338010 4.254657 2.332995 50.188687 7.162701 -14.793698 3.232403 12.040312 0.005886 -2.050654 5.466087 -0.103795 0.091935 -0.092081 -0.000000 0.000000 0.000000 0.000000 0.000000 0.000000 0.000000 
0.968443 16.599413 0.973948 29.897671 79.488463 51.277352 7.122371 -1.738748 8.993984 0.612297 -1.559388 -1.217416 -6.409021 -1.645806 -0.388515 9.618674 8.220127 6.268266 -4.475035 -0.387564 3.337285 0.000000 0.000000 0.000000 -7.753593 -7.644232 1.073956 -65.191737 -37.041749 20.622706 -1.677956 -62.770495 -0.048520 8.907787 -5.975938 -0.513946 -0.213655 0.481006 -0.000000 0.000000 0.000000 0.000000 0.000000 0.000000 0.000000 19.910178 4.576778 2.252818 50.086016 8.197697 -16.574802 3.140953 10.830417 0.004618 -2.786831 5.503897 -0.140513 0.091196 -0.093028 -0.000000 0.000000 0.000000 0.000000 0.000000 0.000000 0.000000 
1.116789 16.601127 1.066026 28.609440 79.337456 49.760877 7.057426 -1.749825 9.295480 0.589530 -1.545662 -1.155464 -6.442001 -1.636143 -0.387474 10.169247 8.734021 6.547042 -4.470227 -0.387400 3.402284 0.000000 0.000000 0.000000 -7.540353 -7.764634 1.030456 -65.450224 -36.398969 19.358259 -1.747371 -60.428816 -0.052592 9.856477 -6.180172 -0.584526 -0.215641 0.463960 -0.000000 0.000000 0.000000 0.000000 0.000000 0.000000 0.000000 20.426157 4.834938 2.155533 50.132593 9.357549 -18.365605 3.032840 9.663174 0.003127 -3.664115 5.572507 -0.185732 0.090441 -0.094187 -0.000000 0.000000 0.000000 0.000000 0.000000 0.000000 0.000000 
1.265720 16.607248 1.161065 27.510921 79.137507 48.472810 6.920159 -1.753761 9.525186 0.555157 -1.530738 -1.102529 -6.467241 -1.624217 -0.361340 10.733025 9.209488 6.809128 -4.448279 -0.386621 3.463565 0.000000 0.000000 0.000000 -7.333822 -7.841640 1.002669 -65.668696 -35.786054 18.165373 -1.818215 -57.896252 -0.055840 10.805425 -6.345523 -0.654409 -0.217126 0.444493 -0.000000 0.000000 0.000000 0.000000 0.000000 0.000000 0.000000 20.863550 5.090602 2.042208 50.358596 10.516613 -20.149809 2.909284 8.670258 0.001443 -4.629368 5.665161 -0.237351 0.089305 -0.095510 -0.000000 0.000000 0.000000 0.000000 0.000000 0.000000 0.000000 
1.415775 16.617757 1.258732 26.580879 78.887899 47.404335 6.721158 -1.748638 9.676470 0.510270 -1.513747 -1.057134 -6.487846 -1.608758 -0.300882 11.289615 9.567075 7.026123 -4.418311 -0.385520 3.513277 0.000000 0.000000 0.000000 -7.144649 -7.869475 0.988481 -65.830278 -35.214568 17.058545 -1.891790 -55.196535 -0.057954 11.707610 -6.458269 -0.718094 -0.217661 0.422799 0.000000 0.000000 0.000000 0.000000 0.000000 0.000000 0.000000 21.239061 5.259656 1.914702 50.741839 11.778638 -21.754966 2.780126 7.820005 -0.000340 -5.663736 5.812408 -0.296969 0.088046 -0.096950 -0.000000 0.000000 0.000000 0.000000 0.000000 0.000000 0.000000 
1.567093 16.632770 1.358533 25.774118 78.589960 46.514156 6.477975 -1.732260 9.746837 0.458679 -1.492790 -1.025378 -6.502171 -1.588625 -0.225727 11.833897 9.881335 7.216008 -4.375782 -0.384067 3.556801 0.000000 0.000000 0.000000 -6.996427 -7.864895 1.000939 -65.906994 -34.661689 16.041347 -1.970470 -52.357721 -0.058761 12.511375 -6.501236 -0.769181 -0.216833 0.399317 -0.000000 0.000000 0.000000 0.000000 0.000000 0.000000 0.000000 21.533898 5.433668 1.775102 51.312838 12.973594 -23.141982 2.648223 7.264256 -0.002156 -6.681520 5.980442 -0.359584 0.086264 -0.098302 -0.000000 0.000000 0.000000 0.000000 0.000000 0.000000 0.000000 
1.719714 16.652337 1.459966 25.045802 78.245650 45.762845 6.205657 -1.704899 9.740765 0.402706 -1.467638 -1.004543 -6.511717 -1.563398 -0.131180 12.343064 10.093815 7.356774 -4.328570 -0.382471 3.588009 0.000000 0.000000 0.000000 -6.895381 -7.827079 1.035916 -65.889682 -34.130244 15.124801 -2.055715 -49.411022 -0.058180 13.167070 -6.461590 -0.801469 -0.214303 0.374449 -0.000000 0.000000 0.000000 0.000000 0.000000 0.000000 0.000000 21.760993 5.547281 1.626052 52.049591 14.210014 -24.259399 2.522523 6.904459 -0.003832 -7.622575 6.217609 -0.425795 0.084112 -0.099719 -0.000000 0.000000 0.000000 0.000000 0.000000 0.000000 0.000000 
1.873370 16.676467 1.562543 24.356695 77.858126 45.110319 5.917521 -1.666123 9.665909 0.344882 -1.436877 -0.996952 -6.516008 -1.532195 -0.031653 12.810904 10.240101 7.457201 -4.276633 -0.380794 3.609534 0.000000 0.000000 0.000000 -6.845370 -7.776075 1.097410 -65.771262 -33.592650 14.308418 -2.148848 -46.392551 -0.056263 13.626026 -6.328411 -0.809757 -0.209843 0.348795 0.000000 0.000000 0.000000 0.000000 0.000000 0.000000 0.000000 21.920647 5.641621 1.470490 52.953223 15.409006 -25.045883 2.407070 6.798800 -0.005279 -8.416189 6.494269 -0.490403 0.081504 -0.101032 -0.000000 0.000000 0.000000 0.000000 0.000000 0.000000 0.000000 
2.027679 16.705120 1.665865 23.677840 77.430776 44.523034 5.623558 -1.616584 9.533831 0.286955 -1.399815 -1.002178 -6.514868 -1.494593 0.064884 13.227793 10.326484 7.517874 -4.222342 -0.379124 3.621593 0.000000 0.000000 0.000000 -6.843120 -7.726698 1.184270 -65.553619 -33.028094 13.594420 -2.250625 -43.339847 -0.053155 13.846749 -6.095787 -0.790545 -0.203427 0.322954 0.000000 0.000000 0.000000 0.000000 0.000000 0.000000 0.000000 22.019363 5.721977 1.311673 54.009155 16.564743 -25.474200 2.305980 6.923125 -0.006398 -9.004632 6.808103 -0.549405 0.078479 -0.102254 -0.000000 0.000000 0.000000 0.000000 0.000000 0.000000 0.000000 
2.182253 16.738093 1.769590 22.992470 76.966979 43.977349 5.329583 -1.557153 9.358048 0.229894 -1.355856 -1.019618 -6.507923 -1.450268 0.149779 13.587782 10.366407 7.542990 -4.167150 -0.377523 3.625354 0.000000 0.000000 0.000000 -6.879772 -7.695443 1.294479 -65.246372 -32.411393 12.983025 -2.361351 -40.292473 -0.049070 13.797736 -5.763244 -0.743330 -0.195231 0.297518 0.000000 0.000000 0.000000 0.000000 0.000000 0.000000 0.000000 22.063277 5.800531 1.152901 55.201636 17.659323 -25.523651 2.221612 7.259209 -0.007129 -9.345880 7.147084 -0.598103 0.075064 -0.103406 -0.000000 0.000000 0.000000 0.000000 0.000000 0.000000 0.000000 
2.336683 16.775054 1.873483 22.295647 76.469898 43.459084 5.037083 -1.488666 9.153267 0.173410 -1.304356 -1.046919 -6.496423 -1.398618 0.220033 13.887883 10.352166 7.530863 -4.114969 -0.376103 3.620195 0.000000 0.000000 0.000000 -6.941639 -7.688140 1.423231 -64.868029 -31.731295 12.481007 -2.481838 -37.283150 -0.044235 13.461434 -5.338318 -0.670911 -0.185672 0.272978 0.000000 0.000000 0.000000 0.000000 0.000000 0.000000 0.000000 22.070223 5.864298 0.996916 56.503492 18.703541 -25.122565 2.155964 7.784736 -0.007477 -9.436869 7.478936 -0.631497 0.071431 -0.104458 -0.000000 0.000000 0.000000 0.000000 0.000000 0.000000 0.000000 
2.490618 16.815521 1.977399 21.590305 75.941514 42.959048 4.745976 -1.412615 8.932318 0.117858 -1.245580 -1.083910 -6.478050 -1.340198 0.265995 14.125865 10.318592 7.494320 -4.063043 -0.374806 3.609661 0.000000 0.000000 0.000000 -7.017010 -7.721182 1.568249 -64.436178 -30.954366 12.080701 -2.611366 -34.355863 -0.038903 12.832356 -4.826679 -0.578183 -0.175203 0.249704 0.000000 0.000000 0.000000 0.000000 0.000000 0.000000 0.000000 22.030059 5.948980 0.846441 57.906639 19.655980 -24.338012 2.107245 8.478269 -0.007449 -9.255524 7.810849 -0.646386 0.067357 -0.105618 -0.000000 0.000000 0.000000 0.000000 0.000000 0.000000 0.000000 
2.643874 16.858937 2.081274 20.885136 75.382826 42.475149 4.453302 -1.330260 8.706268 0.062476 -1.179777 -1.128411 -6.452790 -1.275226 0.286824 14.300428 10.265640 7.435426 -4.012506 -0.373653 3.594140 0.000000 0.000000 0.000000 -7.093062 -7.794579 1.723953 -63.974003 -30.068654 11.782097 -2.749785 -31.545172 -0.033303 11.923276 -4.239385 -0.472345 -0.164418 0.227881 0.000000 0.000000 0.000000 0.000000 0.000000 0.000000 0.000000 21.947493 6.049712 0.703096 59.391841 20.527347 -23.184557 2.074477 9.301387 -0.007102 -8.819097 8.138773 -0.641373 0.062789 -0.107036 -0.000000 0.000000 0.000000 0.000000 0.000000 0.000000 0.000000 
2.796489 16.904626 2.185071 20.190116 74.794602 42.008665 4.153481 -1.242272 8.483523 0.005481 -1.106836 -1.178050 -6.422982 -1.203420 0.285053 14.417193 10.184759 7.353443 -3.966206 -0.372718 3.573151 0.000000 0.000000 0.000000 -7.156379 -7.893911 1.884412 -63.509365 -29.082660 11.589654 -2.897618 -28.868954 -0.027652 10.766012 -3.595800 -0.362897 -0.153968 0.207582 0.000000 0.000000 0.000000 0.000000 0.000000 0.000000 0.000000 21.839536 6.152208 0.566671 60.934066 21.315032 -21.570324 2.054969 10.275803 -0.006571 -8.193348 8.406704 -0.615157 0.057863 -0.108623 -0.000000 0.000000 0.000000 0.000000 0.000000 0.000000 0.000000 
2.948579 16.951861 2.288854 19.514784 74.175002 41.560910 3.843345 -1.150115 8.268169 -0.053579 -1.027835 -1.231469 -6.387712 -1.125775 0.262348 14.476308 10.082909 7.252517 -3.923054 -0.371949 3.547703 0.000000 0.000000 0.000000 -7.200723 -8.008105 2.044526 -63.061447 -27.993820 11.494478 -3.053265 -26.352512 -0.022169 9.404548 -2.907209 -0.257939 -0.144355 0.188745 0.000000 0.000000 0.000000 0.000000 0.000000 0.000000 0.000000 21.700416 6.259714 0.436819 62.522903 22.026968 -19.580682 2.045495 11.358060 -0.005909 -7.407434 8.637412 -0.571240 0.052418 -0.110616 -0.000000 0.000000 0.000000 0.000000 0.000000 0.000000 0.000000 
3.100395 16.999929 2.392615 18.863506 73.521711 41.131227 3.520297 -1.055037 8.060887 -0.115162 -0.943884 -1.287963 -6.346862 -1.043325 0.220905 14.480568 9.968106 7.137341 -3.881994 -0.371309 3.518984 0.000000 0.000000 0.000000 -7.223908 -8.124199 2.200133 -62.644354 -26.802175 11.482342 -3.214108 -24.019054 -0.017086 7.894692 -2.179041 -0.164371 -0.135961 0.171251 0.000000 0.000000 0.000000 0.000000 0.000000 0.000000 0.000000 21.526208 6.376498 0.312480 64.149343 22.666133 -17.288038 2.042869 12.520135 -0.005176 -6.496078 8.845450 -0.512922 0.046322 -0.113169 -0.000000 0.000000 0.000000 0.000000 0.000000 0.000000 0.000000 
3.252321 17.048160 2.496402 18.237530 72.831713 40.719134 3.183223 -0.957809 7.859730 -0.179628 -0.855803 -1.346931 -6.301273 -0.956769 0.164797 14.435105 9.843406 7.010346 -3.842935 -0.370784 3.487549 0.000000 0.000000 0.000000 -7.225856 -8.222203 2.347449 -62.268639 -25.520016 11.537499 -3.376955 -21.879007 -0.012618 6.303059 -1.417603 -0.087798 -0.129071 0.154997 0.000000 0.000000 0.000000 0.000000 0.000000 0.000000 0.000000 21.319010 6.501608 0.191752 65.802003 23.236263 -14.732800 2.043637 13.752584 -0.004428 -5.505978 9.027880 -0.443606 0.039575 -0.116331 -0.000000 0.000000 0.000000 0.000000 0.000000 0.000000 0.000000 
